<svg xmlns="http://www.w3.org/2000/svg" viewBox="0 0 75 60" shape-rendering="crispEdges"><path fill="#645b61" d="M34 3h2v1H34z"/><path fill="#645b61" d="M39 3h3v1H39z"/><path fill="#645b61" d="M34 4h1v1H34z"/><path fill="#e8bd68" d="M35 4h1v1H35z"/><path fill="#645b61" d="M36 4h1v1H36z"/><path fill="#645b61" d="M38 4h2v1H38z"/><path fill="#e8bd68" d="M40 4h1v1H40z"/><path fill="#645b61" d="M41 4h1v1H41z"/><path fill="#645b61" d="M34 5h1v1H34z"/><path fill="#e8bd68" d="M35 5h2v1H35z"/><path fill="#645b61" d="M37 5h2v1H37z"/><path fill="#e8bd68" d="M39 5h2v1H39z"/><path fill="#645b61" d="M41 5h1v1H41z"/><path fill="#645b61" d="M34 6h1v1H34z"/><path fill="#e8bd68" d="M35 6h6v1H35z"/><path fill="#645b61" d="M41 6h1v1H41z"/><path fill="#645b61" d="M34 7h1v1H34z"/><path fill="#e8bd68" d="M35 7h6v1H35z"/><path fill="#645b61" d="M41 7h1v1H41z"/><path fill="#645b61" d="M34 8h1v1H34z"/><path fill="#e8bd68" d="M35 8h1v1H35z"/><path fill="#645b61" d="M36 8h1v1H36z"/><path fill="#e8bd68" d="M37 8h2v1H37z"/><path fill="#645b61" d="M39 8h1v1H39z"/><path fill="#e8bd68" d="M40 8h1v1H40z"/><path fill="#645b61" d="M41 8h1v1H41z"/><path fill="#645b61" d="M34 9h1v1H34z"/><path fill="#e8bd68" d="M35 9h5v1H35z"/><path fill="#645b61" d="M40 9h1v1H40z"/><path fill="#645b61" d="M34 10h1v1H34z"/><path fill="#e8bd68" d="M35 10h5v1H35z"/><path fill="#645b61" d="M40 10h1v1H40z"/><path fill="#645b61" d="M34 11h1v1H34z"/><path fill="#e8bd68" d="M35 11h1v1H35z"/><path fill="#ffe3a1" d="M36 11h3v1H36z"/><path fill="#e8bd68" d="M39 11h1v1H39z"/><path fill="#645b61" d="M40 11h1v1H40z"/><path fill="#645b61" d="M14 12h3v1H14z"/><path fill="#645b61" d="M33 12h1v1H33z"/><path fill="#e8bd68" d="M34 12h2v1H34z"/><path fill="#ffe3a1" d="M36 12h3v1H36z"/><path fill="#e8bd68" d="M39 12h2v1H39z"/><path fill="#645b61" d="M59 12h3v1H59z"/><path fill="#645b61" d="M14 13h4v1H14z"/><path fill="#645b61" d="M33 13h1v1H33z"/><path fill="#e8bd68" d="M34 13h7v1H34z"/><path fill="#645b61" d="M41 13h1v1H41z"/><path fill="#645b61" d="M58 13h4v1H58z"/><path fill="#645b61" d="M14 14h1v1H14z"/><path fill="#a3cbbb" d="M15 14h1v1H15z"/><path fill="#645b61" d="M16 14h2v1H16z"/><path fill="#645b61" d="M33 14h9v1H33z"/><path fill="#645b61" d="M58 14h2v1H58z"/><path fill="#a3cbbb" d="M60 14h1v1H60z"/><path fill="#645b61" d="M14 15h1v1H14z"/><path fill="#a3cbbb" d="M15 15h2v1H15z"/><path fill="#645b61" d="M17 15h1v1H17z"/><path fill="#645b61" d="M32 15h1v1H32z"/><path fill="#e8bd68" d="M33 15h9v1H33z"/><path fill="#645b61" d="M42 15h1v1H42z"/><path fill="#645b61" d="M58 15h1v1H58z"/><path fill="#a3cbbb" d="M59 15h1v1H59z"/><path fill="#645b61" d="M60 15h1v1H60z"/><path fill="#645b61" d="M14 16h2v1H14z"/><path fill="#a3cbbb" d="M16 16h1v1H16z"/><path fill="#645b61" d="M17 16h2v1H17z"/><path fill="#645b61" d="M32 16h11v1H32z"/><path fill="#645b61" d="M57 16h2v1H57z"/><path fill="#a3cbbb" d="M59 16h1v1H59z"/><path fill="#645b61" d="M60 16h1v1H60z"/><path fill="#645b61" d="M14 17h2v1H14z"/><path fill="#a3cbbb" d="M16 17h1v1H16z"/><path fill="#645b61" d="M17 17h42v1H17z"/><path fill="#a3cbbb" d="M59 17h1v1H59z"/><path fill="#645b61" d="M60 17h1v1H60z"/><path fill="#645b61" d="M14 18h2v1H14z"/><path fill="#a3cbbb" d="M16 18h2v1H16z"/><path fill="#645b61" d="M18 18h40v1H18z"/><path fill="#a3cbbb" d="M58 18h1v1H58z"/><path fill="#645b61" d="M59 18h2v1H59z"/><path fill="#645b61" d="M14 19h2v1H14z"/><path fill="#a3cbbb" d="M16 19h4v1H16z"/><path fill="#cce5d5" d="M20 19h35v1H20z"/><path fill="#a3cbbb" d="M55 19h4v1H55z"/><path fill="#645b61" d="M59 19h1v1H59z"/><path fill="#645b61" d="M14 20h3v1H14z"/><path fill="#a3cbbb" d="M17 20h42v1H17z"/><path fill="#645b61" d="M59 20h1v1H59z"/><path fill="#645b61" d="M14 21h3v1H14z"/><path fill="#a3cbbb" d="M17 21h6v1H17z"/><path fill="#78aa99" d="M23 21h1v1H23z"/><path fill="#a3cbbb" d="M24 21h5v1H24z"/><path fill="#78aa99" d="M29 21h1v1H29z"/><path fill="#a3cbbb" d="M30 21h5v1H30z"/><path fill="#78aa99" d="M35 21h1v1H35z"/><path fill="#a3cbbb" d="M36 21h5v1H36z"/><path fill="#78aa99" d="M41 21h1v1H41z"/><path fill="#a3cbbb" d="M42 21h5v1H42z"/><path fill="#78aa99" d="M47 21h1v1H47z"/><path fill="#a3cbbb" d="M48 21h5v1H48z"/><path fill="#78aa99" d="M53 21h1v1H53z"/><path fill="#a3cbbb" d="M54 21h4v1H54z"/><path fill="#645b61" d="M58 21h2v1H58z"/><path fill="#645b61" d="M13 22h3v1H13z"/><path fill="#a3cbbb" d="M16 22h8v1H16z"/><path fill="#78aa99" d="M24 22h1v1H24z"/><path fill="#a3cbbb" d="M25 22h5v1H25z"/><path fill="#78aa99" d="M30 22h1v1H30z"/><path fill="#a3cbbb" d="M31 22h5v1H31z"/><path fill="#78aa99" d="M36 22h1v1H36z"/><path fill="#a3cbbb" d="M37 22h5v1H37z"/><path fill="#78aa99" d="M42 22h1v1H42z"/><path fill="#a3cbbb" d="M43 22h5v1H43z"/><path fill="#78aa99" d="M48 22h1v1H48z"/><path fill="#a3cbbb" d="M49 22h5v1H49z"/><path fill="#78aa99" d="M54 22h1v1H54z"/><path fill="#a3cbbb" d="M55 22h4v1H55z"/><path fill="#645b61" d="M59 22h2v1H59z"/><path fill="#645b61" d="M12 23h3v1H12z"/><path fill="#a3cbbb" d="M15 23h9v1H15z"/><path fill="#78aa99" d="M24 23h1v1H24z"/><path fill="#a3cbbb" d="M25 23h5v1H25z"/><path fill="#78aa99" d="M30 23h1v1H30z"/><path fill="#a3cbbb" d="M31 23h5v1H31z"/><path fill="#78aa99" d="M36 23h1v1H36z"/><path fill="#a3cbbb" d="M37 23h5v1H37z"/><path fill="#78aa99" d="M42 23h1v1H42z"/><path fill="#a3cbbb" d="M43 23h5v1H43z"/><path fill="#78aa99" d="M48 23h1v1H48z"/><path fill="#a3cbbb" d="M49 23h5v1H49z"/><path fill="#78aa99" d="M54 23h1v1H54z"/><path fill="#a3cbbb" d="M55 23h5v1H55z"/><path fill="#645b61" d="M60 23h2v1H60z"/><path fill="#645b61" d="M11 24h3v1H11z"/><path fill="#a3cbbb" d="M14 24h10v1H14z"/><path fill="#78aa99" d="M24 24h2v1H24z"/><path fill="#a3cbbb" d="M26 24h4v1H26z"/><path fill="#78aa99" d="M30 24h2v1H30z"/><path fill="#a3cbbb" d="M32 24h4v1H32z"/><path fill="#78aa99" d="M36 24h2v1H36z"/><path fill="#a3cbbb" d="M38 24h4v1H38z"/><path fill="#78aa99" d="M42 24h2v1H42z"/><path fill="#a3cbbb" d="M44 24h4v1H44z"/><path fill="#78aa99" d="M48 24h2v1H48z"/><path fill="#a3cbbb" d="M50 24h4v1H50z"/><path fill="#78aa99" d="M54 24h2v1H54z"/><path fill="#a3cbbb" d="M56 24h5v1H56z"/><path fill="#645b61" d="M61 24h2v1H61z"/><path fill="#645b61" d="M10 25h3v1H10z"/><path fill="#a3cbbb" d="M13 25h12v1H13z"/><path fill="#78aa99" d="M25 25h2v1H25z"/><path fill="#a3cbbb" d="M27 25h4v1H27z"/><path fill="#78aa99" d="M31 25h2v1H31z"/><path fill="#a3cbbb" d="M33 25h4v1H33z"/><path fill="#78aa99" d="M37 25h2v1H37z"/><path fill="#a3cbbb" d="M39 25h4v1H39z"/><path fill="#78aa99" d="M43 25h2v1H43z"/><path fill="#a3cbbb" d="M45 25h4v1H45z"/><path fill="#78aa99" d="M49 25h2v1H49z"/><path fill="#a3cbbb" d="M51 25h4v1H51z"/><path fill="#78aa99" d="M55 25h2v1H55z"/><path fill="#a3cbbb" d="M57 25h5v1H57z"/><path fill="#645b61" d="M62 25h2v1H62z"/><path fill="#645b61" d="M10 26h3v1H10z"/><path fill="#a3cbbb" d="M13 26h49v1H13z"/><path fill="#645b61" d="M62 26h3v1H62z"/><path fill="#645b61" d="M11 27h53v1H11z"/><path fill="#645b61" d="M12 28h51v1H12z"/><path fill="#645b61" d="M3 29h3v1H3z"/><path fill="#645b61" d="M21 29h34v1H21z"/><path fill="#645b61" d="M69 29h3v1H69z"/><path fill="#645b61" d="M3 30h4v1H3z"/><path fill="#645b61" d="M20 30h35v1H20z"/><path fill="#645b61" d="M68 30h4v1H68z"/><path fill="#645b61" d="M3 31h4v1H3z"/><path fill="#645b61" d="M19 31h4v1H19z"/><path fill="#a3cbbb" d="M23 31h30v1H23z"/><path fill="#645b61" d="M53 31h4v1H53z"/><path fill="#645b61" d="M68 31h4v1H68z"/><path fill="#645b61" d="M3 32h5v1H3z"/><path fill="#645b61" d="M17 32h4v1H17z"/><path fill="#a3cbbb" d="M21 32h33v1H21z"/><path fill="#645b61" d="M54 32h4v1H54z"/><path fill="#645b61" d="M67 32h2v1H67z"/><path fill="#a3cbbb" d="M69 32h1v1H69z"/><path fill="#645b61" d="M70 32h1v1H70z"/><path fill="#645b61" d="M4 33h1v1H4z"/><path fill="#a3cbbb" d="M5 33h1v1H5z"/><path fill="#645b61" d="M6 33h14v1H6z"/><path fill="#a3cbbb" d="M20 33h1v1H20z"/><path fill="#78aa99" d="M21 33h1v1H21z"/><path fill="#a3cbbb" d="M22 33h6v1H22z"/><path fill="#78aa99" d="M28 33h1v1H28z"/><path fill="#a3cbbb" d="M29 33h6v1H29z"/><path fill="#78aa99" d="M35 33h1v1H35z"/><path fill="#a3cbbb" d="M36 33h6v1H36z"/><path fill="#78aa99" d="M42 33h1v1H42z"/><path fill="#a3cbbb" d="M43 33h6v1H43z"/><path fill="#78aa99" d="M49 33h1v1H49z"/><path fill="#a3cbbb" d="M50 33h6v1H50z"/><path fill="#78aa99" d="M56 33h1v1H56z"/><path fill="#645b61" d="M57 33h11v1H57z"/><path fill="#a3cbbb" d="M68 33h1v1H68z"/><path fill="#645b61" d="M69 33h2v1H69z"/><path fill="#645b61" d="M4 34h2v1H4z"/><path fill="#a3cbbb" d="M6 34h1v1H6z"/><path fill="#645b61" d="M7 34h11v1H7z"/><path fill="#a3cbbb" d="M18 34h4v1H18z"/><path fill="#78aa99" d="M22 34h1v1H22z"/><path fill="#a3cbbb" d="M23 34h6v1H23z"/><path fill="#78aa99" d="M29 34h1v1H29z"/><path fill="#a3cbbb" d="M30 34h6v1H30z"/><path fill="#78aa99" d="M36 34h1v1H36z"/><path fill="#a3cbbb" d="M37 34h6v1H37z"/><path fill="#78aa99" d="M43 34h1v1H43z"/><path fill="#a3cbbb" d="M44 34h6v1H44z"/><path fill="#78aa99" d="M50 34h1v1H50z"/><path fill="#a3cbbb" d="M51 34h6v1H51z"/><path fill="#78aa99" d="M57 34h1v1H57z"/><path fill="#645b61" d="M58 34h9v1H58z"/><path fill="#a3cbbb" d="M67 34h2v1H67z"/><path fill="#645b61" d="M69 34h2v1H69z"/><path fill="#645b61" d="M4 35h2v1H4z"/><path fill="#a3cbbb" d="M6 35h16v1H6z"/><path fill="#78aa99" d="M22 35h2v1H22z"/><path fill="#a3cbbb" d="M24 35h5v1H24z"/><path fill="#78aa99" d="M29 35h2v1H29z"/><path fill="#a3cbbb" d="M31 35h5v1H31z"/><path fill="#78aa99" d="M36 35h2v1H36z"/><path fill="#a3cbbb" d="M38 35h5v1H38z"/><path fill="#78aa99" d="M43 35h2v1H43z"/><path fill="#a3cbbb" d="M45 35h5v1H45z"/><path fill="#78aa99" d="M50 35h2v1H50z"/><path fill="#a3cbbb" d="M52 35h5v1H52z"/><path fill="#78aa99" d="M57 35h2v1H57z"/><path fill="#a3cbbb" d="M59 35h10v1H59z"/><path fill="#645b61" d="M69 35h2v1H69z"/><path fill="#645b61" d="M4 36h3v1H4z"/><path fill="#a3cbbb" d="M7 36h16v1H7z"/><path fill="#78aa99" d="M23 36h2v1H23z"/><path fill="#a3cbbb" d="M25 36h5v1H25z"/><path fill="#78aa99" d="M30 36h2v1H30z"/><path fill="#a3cbbb" d="M32 36h5v1H32z"/><path fill="#78aa99" d="M37 36h2v1H37z"/><path fill="#a3cbbb" d="M39 36h5v1H39z"/><path fill="#78aa99" d="M44 36h2v1H44z"/><path fill="#a3cbbb" d="M46 36h5v1H46z"/><path fill="#78aa99" d="M51 36h2v1H51z"/><path fill="#a3cbbb" d="M53 36h5v1H53z"/><path fill="#78aa99" d="M58 36h2v1H58z"/><path fill="#a3cbbb" d="M60 36h8v1H60z"/><path fill="#645b61" d="M68 36h2v1H68z"/><path fill="#645b61" d="M5 37h3v1H5z"/><path fill="#a3cbbb" d="M8 37h5v1H8z"/><path fill="#78aa99" d="M13 37h51v1H13z"/><path fill="#a3cbbb" d="M64 37h2v1H64z"/><path fill="#645b61" d="M66 37h3v1H66z"/><path fill="#645b61" d="M6 38h4v1H6z"/><path fill="#a3cbbb" d="M10 38h3v1H10z"/><path fill="#78aa99" d="M13 38h51v1H13z"/><path fill="#a3cbbb" d="M64 38h1v1H64z"/><path fill="#645b61" d="M65 38h3v1H65z"/><path fill="#645b61" d="M8 39h59v1H8z"/><path fill="#645b61" d="M9 40h26v1H9z"/><path fill="#ffe3a1" d="M35 40h2v1H35z"/><path fill="#645b61" d="M37 40h1v1H37z"/><path fill="#ffe3a1" d="M38 40h3v1H38z"/><path fill="#645b61" d="M41 40h25v1H41z"/><path fill="#645b61" d="M10 41h2v1H10z"/><path fill="#db9d8e" d="M12 41h23v1H12z"/><path fill="#ffe3a1" d="M35 41h6v1H35z"/><path fill="#db9d8e" d="M41 41h22v1H41z"/><path fill="#645b61" d="M63 41h2v1H63z"/><path fill="#645b61" d="M10 42h2v1H10z"/><path fill="#db9d8e" d="M12 42h24v1H12z"/><path fill="#ffe3a1" d="M36 42h4v1H36z"/><path fill="#db9d8e" d="M40 42h23v1H40z"/><path fill="#645b61" d="M63 42h2v1H63z"/><path fill="#645b61" d="M10 43h2v1H10z"/><path fill="#db9d8e" d="M12 43h4v1H12z"/><path fill="#645b61" d="M16 43h9v1H16z"/><path fill="#db9d8e" d="M25 43h12v1H25z"/><path fill="#ffe3a1" d="M37 43h2v1H37z"/><path fill="#db9d8e" d="M39 43h11v1H39z"/><path fill="#645b61" d="M50 43h9v1H50z"/><path fill="#db9d8e" d="M59 43h4v1H59z"/><path fill="#645b61" d="M63 43h2v1H63z"/><path fill="#645b61" d="M10 44h2v1H10z"/><path fill="#db9d8e" d="M12 44h4v1H12z"/><path fill="#645b61" d="M16 44h1v1H16z"/><path fill="#fff4d6" d="M17 44h3v1H17z"/><path fill="#94858b" d="M20 44h1v1H20z"/><path fill="#fff4d6" d="M21 44h3v1H21z"/><path fill="#645b61" d="M24 44h1v1H24z"/><path fill="#db9d8e" d="M25 44h9v1H25z"/><path fill="#e8bd68" d="M34 44h6v1H34z"/><path fill="#db9d8e" d="M40 44h10v1H40z"/><path fill="#645b61" d="M50 44h1v1H50z"/><path fill="#fff4d6" d="M51 44h3v1H51z"/><path fill="#94858b" d="M54 44h1v1H54z"/><path fill="#fff4d6" d="M55 44h3v1H55z"/><path fill="#645b61" d="M58 44h1v1H58z"/><path fill="#db9d8e" d="M59 44h4v1H59z"/><path fill="#645b61" d="M63 44h2v1H63z"/><path fill="#645b61" d="M10 45h2v1H10z"/><path fill="#db9d8e" d="M12 45h4v1H12z"/><path fill="#645b61" d="M16 45h1v1H16z"/><path fill="#fff4d6" d="M17 45h3v1H17z"/><path fill="#94858b" d="M20 45h1v1H20z"/><path fill="#fff4d6" d="M21 45h3v1H21z"/><path fill="#645b61" d="M24 45h1v1H24z"/><path fill="#db9d8e" d="M25 45h7v1H25z"/><path fill="#e8bd68" d="M32 45h9v1H32z"/><path fill="#db9d8e" d="M41 45h9v1H41z"/><path fill="#645b61" d="M50 45h1v1H50z"/><path fill="#fff4d6" d="M51 45h3v1H51z"/><path fill="#94858b" d="M54 45h1v1H54z"/><path fill="#fff4d6" d="M55 45h3v1H55z"/><path fill="#645b61" d="M58 45h1v1H58z"/><path fill="#db9d8e" d="M59 45h4v1H59z"/><path fill="#645b61" d="M63 45h2v1H63z"/><path fill="#645b61" d="M10 46h2v1H10z"/><path fill="#db9d8e" d="M12 46h4v1H12z"/><path fill="#645b61" d="M16 46h1v1H16z"/><path fill="#fff4d6" d="M17 46h3v1H17z"/><path fill="#94858b" d="M20 46h1v1H20z"/><path fill="#fff4d6" d="M21 46h3v1H21z"/><path fill="#645b61" d="M24 46h1v1H24z"/><path fill="#db9d8e" d="M25 46h6v1H25z"/><path fill="#e8bd68" d="M31 46h3v1H31z"/><path fill="#645b61" d="M34 46h5v1H34z"/><path fill="#e8bd68" d="M39 46h3v1H39z"/><path fill="#db9d8e" d="M42 46h8v1H42z"/><path fill="#645b61" d="M50 46h1v1H50z"/><path fill="#fff4d6" d="M51 46h3v1H51z"/><path fill="#94858b" d="M54 46h1v1H54z"/><path fill="#fff4d6" d="M55 46h3v1H55z"/><path fill="#645b61" d="M58 46h1v1H58z"/><path fill="#db9d8e" d="M59 46h4v1H59z"/><path fill="#645b61" d="M63 46h2v1H63z"/><path fill="#645b61" d="M10 47h2v1H10z"/><path fill="#db9d8e" d="M12 47h4v1H12z"/><path fill="#645b61" d="M16 47h1v1H16z"/><path fill="#fff4d6" d="M17 47h3v1H17z"/><path fill="#94858b" d="M20 47h1v1H20z"/><path fill="#fff4d6" d="M21 47h3v1H21z"/><path fill="#645b61" d="M24 47h1v1H24z"/><path fill="#db9d8e" d="M25 47h6v1H25z"/><path fill="#e8bd68" d="M31 47h2v1H31z"/><path fill="#645b61" d="M33 47h7v1H33z"/><path fill="#e8bd68" d="M40 47h3v1H40z"/><path fill="#db9d8e" d="M43 47h7v1H43z"/><path fill="#645b61" d="M50 47h1v1H50z"/><path fill="#fff4d6" d="M51 47h3v1H51z"/><path fill="#94858b" d="M54 47h1v1H54z"/><path fill="#fff4d6" d="M55 47h3v1H55z"/><path fill="#645b61" d="M58 47h1v1H58z"/><path fill="#db9d8e" d="M59 47h4v1H59z"/><path fill="#645b61" d="M63 47h2v1H63z"/><path fill="#645b61" d="M10 48h2v1H10z"/><path fill="#db9d8e" d="M12 48h4v1H12z"/><path fill="#645b61" d="M16 48h1v1H16z"/><path fill="#fff4d6" d="M17 48h3v1H17z"/><path fill="#94858b" d="M20 48h1v1H20z"/><path fill="#fff4d6" d="M21 48h3v1H21z"/><path fill="#645b61" d="M24 48h1v1H24z"/><path fill="#db9d8e" d="M25 48h6v1H25z"/><path fill="#e8bd68" d="M31 48h2v1H31z"/><path fill="#645b61" d="M33 48h8v1H33z"/><path fill="#e8bd68" d="M41 48h2v1H41z"/><path fill="#db9d8e" d="M43 48h7v1H43z"/><path fill="#645b61" d="M50 48h1v1H50z"/><path fill="#fff4d6" d="M51 48h3v1H51z"/><path fill="#94858b" d="M54 48h1v1H54z"/><path fill="#fff4d6" d="M55 48h3v1H55z"/><path fill="#645b61" d="M58 48h1v1H58z"/><path fill="#db9d8e" d="M59 48h4v1H59z"/><path fill="#645b61" d="M63 48h2v1H63z"/><path fill="#645b61" d="M10 49h2v1H10z"/><path fill="#db9d8e" d="M12 49h4v1H12z"/><path fill="#645b61" d="M16 49h1v1H16z"/><path fill="#fff4d6" d="M17 49h3v1H17z"/><path fill="#94858b" d="M20 49h1v1H20z"/><path fill="#fff4d6" d="M21 49h3v1H21z"/><path fill="#645b61" d="M24 49h1v1H24z"/><path fill="#db9d8e" d="M25 49h6v1H25z"/><path fill="#e8bd68" d="M31 49h2v1H31z"/><path fill="#645b61" d="M33 49h8v1H33z"/><path fill="#e8bd68" d="M41 49h2v1H41z"/><path fill="#db9d8e" d="M43 49h7v1H43z"/><path fill="#645b61" d="M50 49h1v1H50z"/><path fill="#fff4d6" d="M51 49h3v1H51z"/><path fill="#94858b" d="M54 49h1v1H54z"/><path fill="#fff4d6" d="M55 49h3v1H55z"/><path fill="#645b61" d="M58 49h1v1H58z"/><path fill="#db9d8e" d="M59 49h4v1H59z"/><path fill="#645b61" d="M63 49h2v1H63z"/><path fill="#645b61" d="M10 50h2v1H10z"/><path fill="#db9d8e" d="M12 50h4v1H12z"/><path fill="#645b61" d="M16 50h9v1H16z"/><path fill="#db9d8e" d="M25 50h6v1H25z"/><path fill="#e8bd68" d="M31 50h2v1H31z"/><path fill="#645b61" d="M33 50h8v1H33z"/><path fill="#e8bd68" d="M41 50h2v1H41z"/><path fill="#db9d8e" d="M43 50h7v1H43z"/><path fill="#645b61" d="M50 50h9v1H50z"/><path fill="#db9d8e" d="M59 50h4v1H59z"/><path fill="#645b61" d="M63 50h2v1H63z"/><path fill="#645b61" d="M10 51h2v1H10z"/><path fill="#db9d8e" d="M12 51h19v1H12z"/><path fill="#e8bd68" d="M31 51h2v1H31z"/><path fill="#645b61" d="M33 51h8v1H33z"/><path fill="#e8bd68" d="M41 51h2v1H41z"/><path fill="#db9d8e" d="M43 51h20v1H43z"/><path fill="#645b61" d="M63 51h2v1H63z"/><path fill="#645b61" d="M10 52h2v1H10z"/><path fill="#bd7f79" d="M12 52h19v1H12z"/><path fill="#e8bd68" d="M31 52h2v1H31z"/><path fill="#645b61" d="M33 52h8v1H33z"/><path fill="#e8bd68" d="M41 52h2v1H41z"/><path fill="#bd7f79" d="M43 52h20v1H43z"/><path fill="#645b61" d="M63 52h2v1H63z"/><path fill="#645b61" d="M10 53h2v1H10z"/><path fill="#bd7f79" d="M12 53h19v1H12z"/><path fill="#e8bd68" d="M31 53h2v1H31z"/><path fill="#645b61" d="M33 53h8v1H33z"/><path fill="#e8bd68" d="M41 53h2v1H41z"/><path fill="#bd7f79" d="M43 53h20v1H43z"/><path fill="#645b61" d="M63 53h2v1H63z"/><path fill="#645b61" d="M10 54h21v1H10z"/><path fill="#e8bd68" d="M31 54h2v1H31z"/><path fill="#645b61" d="M33 54h8v1H33z"/><path fill="#e8bd68" d="M41 54h2v1H41z"/><path fill="#645b61" d="M43 54h22v1H43z"/><path fill="#645b61" d="M8 55h2v1H8z"/><path fill="#94858b" d="M10 55h20v1H10z"/><path fill="#ffe3a1" d="M30 55h15v1H30z"/><path fill="#94858b" d="M45 55h20v1H45z"/><path fill="#645b61" d="M65 55h2v1H65z"/><path fill="#645b61" d="M8 56h22v1H8z"/><path fill="#ffe3a1" d="M30 56h15v1H30z"/><path fill="#645b61" d="M45 56h22v1H45z"/></svg>